<svg width="28" height="30" viewBox="0 0 28 30" fill="none" xmlns="http://www.w3.org/2000/svg">
<path d="M26.3063 6.52155L16.0806 0.579056C15.4262 0.199754 14.6832 0 13.9269 0C13.1705 0 12.4275 0.199754 11.7732 0.579056L1.54805 6.52155C1.50777 6.54518 1.47438 6.57893 1.45117 6.61946C1.42797 6.65998 1.41576 6.70586 1.41576 6.75256C1.41576 6.79925 1.42797 6.84514 1.45117 6.88566C1.47438 6.92618 1.50777 6.95993 1.54805 6.98356L13.7933 14.1869C13.8345 14.2111 13.8814 14.2239 13.9292 14.2239C13.977 14.2239 14.0239 14.2111 14.0651 14.1869L26.3077 6.98356C26.3479 6.95981 26.3812 6.92597 26.4043 6.88538C26.4274 6.84479 26.4394 6.79887 26.4393 6.75217C26.4392 6.70548 26.4268 6.65963 26.4035 6.61917C26.3802 6.57872 26.3467 6.54507 26.3063 6.52155ZM13.9272 8.03681C13.04 8.03681 12.3202 7.55739 12.3202 6.96548C12.3202 6.37358 13.04 5.89416 13.9272 5.89416C14.8144 5.89416 15.5342 6.37358 15.5342 6.96548C15.5342 7.55739 14.8144 8.03681 13.9272 8.03681Z" fill="#53712A"/>
<path d="M12.722 15.992L0.401746 8.80544C0.361051 8.78195 0.31489 8.76957 0.267899 8.76956C0.220909 8.76955 0.174741 8.7819 0.134034 8.80538C0.0933268 8.82885 0.059512 8.86262 0.0359853 8.9033C0.0124586 8.94398 4.81704e-05 8.99013 0 9.03712V20.6824C0.00101086 21.2435 0.148893 21.7945 0.42894 22.2807C0.708986 22.7669 1.11144 23.1714 1.59627 23.4538L12.4541 29.9641C12.4948 29.9876 12.541 30 12.588 30C12.635 30 12.6811 29.9876 12.7218 29.9641C12.7626 29.9407 12.7964 29.9069 12.8199 29.8662C12.8434 29.8256 12.8558 29.7794 12.8559 29.7324V16.2237C12.8558 16.1767 12.8434 16.1306 12.8199 16.0899C12.7964 16.0493 12.7626 16.0155 12.722 15.992ZM3.21397 22.4996C2.62206 22.4996 2.14265 21.7798 2.14265 20.8927C2.14265 20.0055 2.62206 19.2857 3.21397 19.2857C3.80588 19.2857 4.28529 20.0055 4.28529 20.8927C4.28529 21.7798 3.80588 22.4996 3.21397 22.4996ZM9.64191 20.357C9.05 20.357 8.57059 19.6372 8.57059 18.75C8.57059 17.8628 9.05 17.143 9.64191 17.143C10.2338 17.143 10.7132 17.8628 10.7132 18.75C10.7132 19.6372 10.2338 20.357 9.64191 20.357Z" fill="#53712A"/>
<path d="M27.4527 8.80749L15.1324 16.0423C15.0919 16.0657 15.0581 16.0994 15.0346 16.1399C15.0111 16.1804 14.9987 16.2264 14.9985 16.2733V29.7311C14.9986 29.7781 15.011 29.8242 15.0345 29.8649C15.058 29.9056 15.0918 29.9394 15.1326 29.9628C15.1733 29.9863 15.2194 29.9987 15.2664 29.9987C15.3134 29.9986 15.3596 29.9863 15.4003 29.9628L26.2575 23.4525C26.7422 23.1703 27.1447 22.7661 27.4248 22.2801C27.705 21.7942 27.8531 21.2434 27.8544 20.6824V9.04117C27.8547 8.99401 27.8426 8.94761 27.8192 8.90665C27.7958 8.86569 27.762 8.83164 27.7212 8.80792C27.6805 8.78421 27.6342 8.77168 27.587 8.77161C27.5398 8.77153 27.4935 8.78391 27.4527 8.80749ZM18.2125 26.2493C17.6206 26.2493 17.1412 25.5295 17.1412 24.6423C17.1412 23.7551 17.6206 23.0353 18.2125 23.0353C18.8044 23.0353 19.2838 23.7551 19.2838 24.6423C19.2838 25.5295 18.8044 26.2493 18.2125 26.2493ZM18.2125 20.357C17.6206 20.357 17.1412 19.6372 17.1412 18.75C17.1412 17.8629 17.6206 17.1431 18.2125 17.1431C18.8044 17.1431 19.2838 17.8629 19.2838 18.75C19.2838 19.6372 18.8044 20.357 18.2125 20.357ZM24.6404 22.4997C24.0485 22.4997 23.5691 21.7799 23.5691 20.8927C23.5691 20.0055 24.0485 19.2857 24.6404 19.2857C25.2323 19.2857 25.7118 20.0055 25.7118 20.8927C25.7118 21.7799 25.2323 22.4997 24.6404 22.4997ZM24.6404 16.6074C24.0485 16.6074 23.5691 15.8876 23.5691 15.0004C23.5691 14.1132 24.0485 13.3934 24.6404 13.3934C25.2323 13.3934 25.7118 14.1132 25.7118 15.0004C25.7118 15.8876 25.2323 16.6074 24.6404 16.6074Z" fill="#53712A"/>
</svg>
