<svg width="25" height="26" viewBox="0 0 25 26" fill="none" xmlns="http://www.w3.org/2000/svg">
<path d="M10.6912 21.3824C13.0633 21.3819 15.367 20.5878 17.2355 19.1265L23.1103 25.0013L25 23.1117L19.1252 17.2369C20.5872 15.3681 21.3818 13.0639 21.3824 10.6912C21.3824 4.79633 16.586 0 10.6912 0C4.79633 0 0 4.79633 0 10.6912C0 16.586 4.79633 21.3824 10.6912 21.3824ZM10.6912 2.6728C15.1133 2.6728 18.7096 6.26904 18.7096 10.6912C18.7096 15.1133 15.1133 18.7096 10.6912 18.7096C6.26904 18.7096 2.6728 15.1133 2.6728 10.6912C2.6728 6.26904 6.26904 2.6728 10.6912 2.6728Z" fill="#53712A"/>
</svg>
